<svg width="79" height="23" viewBox="0 0 79 23" fill="none" xmlns="http://www.w3.org/2000/svg">
<path d="M2.37938 22.2758C3.59479 22.2758 4.21733 21.5643 4.21733 20.2599V13.086H12.162C13.1403 13.086 13.7035 12.5228 13.7035 11.5445C13.7035 10.5959 13.1403 10.0623 12.162 10.0623H4.21733V4.16307H12.7845C13.7924 4.16307 14.326 3.59983 14.326 2.62156C14.326 1.67295 13.7924 1.13935 12.7845 1.13935H2.43867C1.13432 1.13935 0.422852 1.85081 0.422852 3.15516V20.2599C0.422852 21.5643 1.13432 22.2758 2.37938 22.2758Z" fill="white"/>
<path d="M18.8487 4.57809C20.2716 4.57809 21.0423 3.86663 21.0423 2.62156C21.0423 1.34686 20.2716 0.665039 18.8487 0.665039C17.4554 0.665039 16.655 1.34686 16.655 2.62156C16.655 3.86663 17.4554 4.57809 18.8487 4.57809ZM18.8487 22.2461C20.0641 22.2461 20.7162 21.505 20.7162 20.2303V9.35083C20.7162 8.04647 20.0344 7.33501 18.8487 7.33501C17.6629 7.33501 17.0107 8.04647 17.0107 9.35083V20.2303C17.0107 21.505 17.6629 22.2461 18.8487 22.2461Z" fill="white"/>
<path d="M25.5152 22.2758C26.7306 22.2758 27.3827 21.5939 27.3827 20.3785V13.8864C27.3827 11.6334 28.776 10.1512 30.9401 10.1512C32.7187 10.1512 33.5488 11.1295 33.5488 13.3825V20.3785C33.5488 21.5939 34.2306 22.2758 35.4164 22.2758C36.6021 22.2758 37.2543 21.5939 37.2543 20.3785V13.2046C37.2543 9.17296 35.5942 7.24608 32.1258 7.24608C30.0507 7.24608 28.2721 8.13541 27.2938 9.79549V9.17296C27.2938 7.95754 26.6416 7.30537 25.4855 7.30537C24.3294 7.30537 23.6772 7.95754 23.6772 9.17296V20.3785C23.6772 21.5939 24.3294 22.2758 25.5152 22.2758Z" fill="white"/>
<path d="M45.0792 22.335C45.4943 22.335 45.9389 22.3054 46.354 22.2461C47.2729 22.1275 47.6287 21.5939 47.6287 20.586C47.6287 19.4595 47.4804 19.1631 46.9172 19.2224C46.6504 19.252 46.3836 19.2817 46.0575 19.2817C44.6346 19.2817 43.8342 18.422 43.8342 16.6137V2.76979C43.8342 1.55437 43.1524 0.902192 41.9666 0.902192C40.7808 0.902192 40.1286 1.55437 40.1286 2.76979V16.7916C40.1286 20.4378 41.7887 22.335 45.0792 22.335Z" fill="white"/>
<path d="M53.4786 22.335C55.524 22.335 57.0359 21.3568 57.688 19.7263V20.3785C57.688 21.5939 58.3106 22.2758 59.4371 22.2758C60.5339 22.2758 61.1564 21.5939 61.1564 20.3785V13.2639C61.1564 9.14332 59.1406 7.24608 54.9015 7.24608C53.5082 7.24608 51.7888 7.54252 49.9805 8.28363C48.1426 9.02474 48.943 11.8409 50.8402 10.9516C52.2928 10.2698 53.6268 10.0326 54.7829 10.0326C56.8284 10.0326 57.6288 10.833 57.6288 12.8192V13.4417H56.5912C50.3066 13.4417 48.0536 14.5682 48.0536 17.7402C48.0536 20.3489 50.3363 22.335 53.4786 22.335ZM54.2493 19.7856C52.6189 19.7856 51.6702 18.8667 51.6702 17.5623C51.6702 16.0504 52.9153 15.5761 56.6208 15.5761H57.6288V16.2283C57.6288 18.3034 56.1762 19.7856 54.2493 19.7856Z" fill="white"/>
<path d="M72.3879 22.335C76.1824 22.335 78.7615 19.4299 78.7615 14.7757C78.7615 10.1216 76.212 7.24608 72.3879 7.24608C70.3425 7.24608 68.5934 8.1947 67.7338 9.67691V2.76979C67.7338 1.55437 67.0519 0.902192 65.8662 0.902192C64.6804 0.902192 64.0282 1.55437 64.0282 2.76979V20.3785C64.0282 21.5939 64.6804 22.2758 65.8662 22.2758C67.0223 22.2758 67.6745 21.5939 67.6745 20.3785V19.756C68.5045 21.3568 70.2832 22.335 72.3879 22.335ZM71.3504 19.5188C69.127 19.5188 67.6745 17.918 67.6745 14.7757C67.6745 11.6334 69.127 10.0623 71.3504 10.0623C73.5441 10.0623 75.0263 11.6334 75.0263 14.7757C75.0263 17.918 73.5441 19.5188 71.3504 19.5188Z" fill="white"/>
</svg>
