<svg width="39" height="39" viewBox="0 0 39 39" fill="none" xmlns="http://www.w3.org/2000/svg">
<path fill-rule="evenodd" clip-rule="evenodd" d="M19.2114 38.7113C29.8215 38.7113 38.4227 30.1101 38.4227 19.4999C38.4227 15.6906 37.314 12.1403 35.4017 9.15392C35.2877 9.16467 35.169 9.1701 35.0457 9.1701H21.8239V18.2227H34.0849C35.5947 18.2227 36.464 19.0415 36.464 20.4972C36.464 21.9984 35.5947 22.8628 34.0849 22.8628H21.8239V33.8715C21.8239 35.873 20.8631 36.9648 18.9874 36.9648C17.0659 36.9648 15.9679 35.873 15.9679 33.8715V7.62343C15.9679 5.62184 17.0659 4.53007 19.0789 4.53007H31.2532C27.9589 1.87676 23.7706 0.288574 19.2114 0.288574C8.60122 0.288574 0 8.88979 0 19.4999C0 30.1101 8.60122 38.7113 19.2114 38.7113Z" fill="url(#paint0_linear_22_10459)"/>
<defs>
<linearGradient id="paint0_linear_22_10459" x1="14.5999" y1="6" x2="24.0999" y2="41" gradientUnits="userSpaceOnUse">
<stop stop-color="#2AAC95"/>
<stop offset="0.989583" stop-color="#76D1F7"/>
</linearGradient>
</defs>
</svg>
